<?xml version="1.0" encoding="UTF-8"?>
<svg id="Layer_2" data-name="Layer 2" xmlns="http://www.w3.org/2000/svg" viewBox="0 0 277.33 403.05">
  <defs>
    <style>
      .cls-1 {
        fill: #008ff9;
      }

      .cls-2 {
        fill: #d3dadd;
      }
    </style>
  </defs>
  <g id="Layer_1-2" data-name="Layer 1">
    <g>
      <path class="cls-1" d="m58.47,233.89H0V20.88C0,9.35,9.35,0,20.88,0h235.57c11.53,0,20.88,9.35,20.88,20.88v111.1h-58.47v-52.63c0-11.53-9.35-20.88-20.88-20.88h-118.62c-11.53,0-20.88,9.35-20.88,20.88v154.54Z"/>
      <path class="cls-2" d="m256.45,403.05H20.88c-11.53,0-20.88-9.35-20.88-20.88v-111.1h58.47v52.63c0,11.53,9.35,20.88,20.88,20.88h118.62c11.53,0,20.88-9.35,20.88-20.88v-154.54h58.47v213.01c0,11.53-9.35,20.88-20.88,20.88Z"/>
    </g>
  </g>
</svg>